<?xml version="1.0" encoding="iso-8859-1"?>
<!-- Generator: Adobe Illustrator 19.0.0, SVG Export Plug-In . SVG Version: 6.00 Build 0)  -->
<svg version="1.1" id="Layer_1" xmlns="http://www.w3.org/2000/svg" xmlns:xlink="http://www.w3.org/1999/xlink" x="0px" y="0px"
	 viewBox="0 0 503.467 503.467" style="enable-background:new 0 0 503.467 503.467;" xml:space="preserve">
<g transform="translate(3 1)">
	<path style="fill:#F2EDDA;" d="M445.213,327.533l-0.853,0.853c-8.533-3.413-17.067-0.853-23.893,6.827L403.4,352.28l-86.187,86.187
		L308.68,447v51.2h-256c-18.773,0-34.133-15.36-34.133-34.133V37.4c0-18.773,15.36-34.133,34.133-34.133h273.067V88.6
		c0,18.773,15.36,34.133,34.133,34.133h85.333V327.533z"/>
	<path style="fill:#AAB1BA;" d="M445.213,122.733H359.88c-18.773,0-34.133-15.36-34.133-34.133V3.267L445.213,122.733z"/>
	<path style="fill:#80D6FA;" d="M429,377.88l-86.187,86.187l-25.6-25.6L403.4,352.28L429,377.88z M454.6,403.48l-86.187,86.187
		l-25.6-25.6L429,377.88L454.6,403.48z"/>
	<path style="fill:#FFD0A1;" d="M103.88,208.067h51.2v-51.2h-51.2V208.067z M103.88,412.867h51.2v-51.2h-51.2V412.867z"/>
	<path style="fill:#FF7474;" d="M471.667,352.28c10.24,10.24,10.24,23.893,0,34.133L454.6,403.48l-25.6-25.6l-25.6-25.6
		l17.067-17.067c6.827-6.827,16.213-9.387,24.747-6.827c3.413,0.853,6.827,3.413,9.387,6.827L471.667,352.28z"/>
	<polygon style="fill:#E4F2DE;" points="368.413,489.667 359.88,498.2 308.68,498.2 308.68,447 317.213,438.467 342.813,464.067 	
		"/>
</g>
<path style="fill:#51565F;" d="M362.88,503.467h-51.2c-2.56,0-4.267-1.707-4.267-4.267V448c0-0.853,0.853-2.56,0.853-3.413
	L420.053,332.8c5.973-5.973,12.8-8.533,19.627-8.533l0,0c7.68,0,14.507,3.413,20.48,8.533l17.067,17.067
	c11.947,11.947,11.947,28.16,0,40.107L365.44,501.76C365.44,502.613,363.733,503.467,362.88,503.467z M315.947,494.933h45.227
	l4.267-4.267l-45.227-45.227l-4.267,4.267V494.933z M351.787,465.067l19.627,19.627l80.213-80.213L432,384.853L351.787,465.067z
	 M326.187,439.467l19.627,19.627l80.213-80.213L406.4,359.253L326.187,439.467z M412.373,353.28l45.227,45.227l13.653-13.653
	c4.267-4.267,6.827-9.387,6.827-13.653c0-5.12-2.56-10.24-6.827-14.507l-17.067-17.067c-8.533-8.533-19.627-8.533-28.16,0
	L412.373,353.28z M277.547,503.467H55.68c-21.333,0-38.4-17.067-38.4-38.4V38.4C17.28,17.067,34.347,0,55.68,0h273.067
	c0.853,0,2.56,0.853,3.413,0.853l85.333,85.333c1.707,1.707,1.707,4.267,0,5.973s-4.267,1.707-5.973,0L327.04,7.68H55.68
	c-16.213,0-29.867,13.653-29.867,29.867v426.667c0,16.213,13.653,29.867,29.867,29.867h221.867c2.56,0,4.267,1.707,4.267,4.267
	C281.813,500.907,280.107,503.467,277.547,503.467z M277.547,418.133H209.28c-2.56,0-4.267-1.707-4.267-4.267
	c0-2.56,1.707-4.267,4.267-4.267h68.267c2.56,0,4.267,1.707,4.267,4.267C281.813,416.427,280.107,418.133,277.547,418.133z
	 M158.08,418.133h-51.2c-2.56,0-4.267-1.707-4.267-4.267v-51.2c0-2.56,1.707-4.267,4.267-4.267h51.2c2.56,0,4.267,1.707,4.267,4.267
	v51.2C162.347,416.427,160.64,418.133,158.08,418.133z M111.147,409.6h42.667v-42.667h-42.667V409.6z M328.747,366.933H311.68
	c-2.56,0-4.267-1.707-4.267-4.267s1.707-4.267,4.267-4.267h17.067c2.56,0,4.267,1.707,4.267,4.267S331.307,366.933,328.747,366.933z
	 M277.547,366.933H209.28c-2.56,0-4.267-1.707-4.267-4.267s1.707-4.267,4.267-4.267h68.267c2.56,0,4.267,1.707,4.267,4.267
	S280.107,366.933,277.547,366.933z M123.947,315.733c-0.853,0-2.56-0.853-3.413-0.853l-17.067-17.067
	c-1.707-1.707-1.707-4.267,0-5.973c1.707-1.707,4.267-1.707,5.973,0l13.653,13.653l31.573-46.933
	c1.707-1.707,4.267-2.56,5.973-0.853c1.707,1.707,2.56,4.267,0.853,5.973l-34.133,51.2
	C126.507,314.88,125.653,315.733,123.947,315.733L123.947,315.733z M362.88,315.733h-51.2c-2.56,0-4.267-1.707-4.267-4.267
	c0-2.56,1.707-4.267,4.267-4.267h51.2c2.56,0,4.267,1.707,4.267,4.267C367.147,314.027,365.44,315.733,362.88,315.733z
	 M277.547,315.733H209.28c-2.56,0-4.267-1.707-4.267-4.267c0-2.56,1.707-4.267,4.267-4.267h68.267c2.56,0,4.267,1.707,4.267,4.267
	C281.813,314.027,280.107,315.733,277.547,315.733z M448.213,298.667c-2.56,0-4.267-1.707-4.267-4.267V128H362.88
	c-21.333,0-38.4-17.067-38.4-38.4V46.933c0-2.56,1.707-4.267,4.267-4.267s4.267,1.707,4.267,4.267V89.6
	c0,16.213,13.653,29.867,29.867,29.867h85.333c2.56,0,4.267,1.707,4.267,4.267V294.4C452.48,296.96,450.773,298.667,448.213,298.667
	z M345.813,264.533H260.48c-2.56,0-4.267-1.707-4.267-4.267c0-2.56,1.707-4.267,4.267-4.267h85.333c2.56,0,4.267,1.707,4.267,4.267
	C350.08,262.827,348.373,264.533,345.813,264.533z M226.347,264.533H209.28c-2.56,0-4.267-1.707-4.267-4.267
	c0-2.56,1.707-4.267,4.267-4.267h17.067c2.56,0,4.267,1.707,4.267,4.267C230.613,262.827,228.907,264.533,226.347,264.533z
	 M362.88,213.333h-68.267c-2.56,0-4.267-1.707-4.267-4.267c0-2.56,1.707-4.267,4.267-4.267h68.267c2.56,0,4.267,1.707,4.267,4.267
	C367.147,211.627,365.44,213.333,362.88,213.333z M260.48,213.333h-51.2c-2.56,0-4.267-1.707-4.267-4.267
	c0-2.56,1.707-4.267,4.267-4.267h51.2c2.56,0,4.267,1.707,4.267,4.267C264.747,211.627,263.04,213.333,260.48,213.333z
	 M158.08,213.333h-51.2c-2.56,0-4.267-1.707-4.267-4.267v-51.2c0-2.56,1.707-4.267,4.267-4.267h51.2c2.56,0,4.267,1.707,4.267,4.267
	v51.2C162.347,211.627,160.64,213.333,158.08,213.333z M111.147,204.8h42.667v-42.667h-42.667V204.8z M294.613,162.133H209.28
	c-2.56,0-4.267-1.707-4.267-4.267c0-2.56,1.707-4.267,4.267-4.267h85.333c2.56,0,4.267,1.707,4.267,4.267
	C298.88,160.427,297.173,162.133,294.613,162.133z"/>
<g>
</g>
<g>
</g>
<g>
</g>
<g>
</g>
<g>
</g>
<g>
</g>
<g>
</g>
<g>
</g>
<g>
</g>
<g>
</g>
<g>
</g>
<g>
</g>
<g>
</g>
<g>
</g>
<g>
</g>
</svg>
